<svg width="100" height="86" viewBox="0 0 100 86" fill="none" xmlns="http://www.w3.org/2000/svg">
<circle cx="48" cy="36" r="32" fill="#F9FBA0"/>
<mask id="mask0_2_30" style="mask-type:alpha" maskUnits="userSpaceOnUse" x="0" y="-14" width="100" height="100">
<circle cx="50" cy="36" r="50" fill="black"/>
</mask>
<g mask="url(#mask0_2_30)">
<path d="M17.726 47V26.7H26.078C27.876 26.7 29.413 26.99 30.689 27.57C31.9843 28.15 32.98 28.9813 33.676 30.064C34.372 31.1467 34.72 32.4323 34.72 33.921C34.72 35.4097 34.372 36.6953 33.676 37.778C32.98 38.8607 31.9843 39.692 30.689 40.272C29.413 40.852 27.876 41.142 26.078 41.142H19.814L21.496 39.373V47H17.726ZM21.496 39.779L19.814 37.952H25.904C27.5667 37.952 28.8137 37.604 29.645 36.908C30.4957 36.1927 30.921 35.197 30.921 33.921C30.921 32.6257 30.4957 31.63 29.645 30.934C28.8137 30.238 27.5667 29.89 25.904 29.89H19.814L21.496 28.034V39.779ZM52.7528 26.7H56.5228V47H52.7528V26.7ZM42.2548 47H38.4848V26.7H42.2548V47ZM53.0428 38.3H41.9358V35.081H53.0428V38.3ZM61.9623 47V26.7H70.3143C72.1123 26.7 73.6493 26.99 74.9253 27.57C76.2207 28.15 77.2163 28.9813 77.9123 30.064C78.6083 31.1467 78.9563 32.4323 78.9563 33.921C78.9563 35.4097 78.6083 36.6953 77.9123 37.778C77.2163 38.8413 76.2207 39.663 74.9253 40.243C73.6493 40.8037 72.1123 41.084 70.3143 41.084H64.0503L65.7323 39.373V47H61.9623ZM75.2443 47L70.1113 39.634H74.1423L79.3043 47H75.2443ZM65.7323 39.779L64.0503 37.981H70.1403C71.803 37.981 73.05 37.6233 73.8813 36.908C74.732 36.1927 75.1573 35.197 75.1573 33.921C75.1573 32.6257 74.732 31.63 73.8813 30.934C73.05 30.238 71.803 29.89 70.1403 29.89H64.0503L65.7323 28.034V39.779Z" fill="#191914"/>
</g>
</svg>
