<svg width="49" height="49" viewBox="0 0 49 49" fill="none" xmlns="http://www.w3.org/2000/svg">
<path d="M40.1985 2.01074H8.80141C5.05003 2.01074 2.00897 5.0518 2.00897 8.80317V40.1967C2.00897 43.948 5.05003 46.9889 8.80141 46.9889H40.1983C43.9497 46.9889 46.9908 43.9478 46.9908 40.1967V8.80337C46.991 5.052 43.9497 2.01074 40.1985 2.01074Z" fill="#ADAD93"/>
<path opacity="0.7811" d="M35.1066 3.93359H13.8932C8.27789 3.93359 3.75726 8.49098 3.75726 14.1518V34.848C3.9391 39.267 4.6383 36.4732 5.96896 31.5797C7.51572 25.8925 12.5526 20.9219 18.687 17.1965C23.3689 14.3532 28.6094 12.5375 38.1489 12.3647C43.559 12.2668 43.0815 5.3433 35.1066 3.93359Z" fill="url(#paint0_linear_5_60)"/>
<path d="M15.6195 39.7666V19.4257H8.8591V39.7666H15.6195ZM12.2406 16.6484C14.5965 16.6484 16.0651 15.0863 16.0651 13.1341C16.0214 11.1386 14.5965 9.61983 12.2848 9.61983C9.97124 9.61983 8.45972 11.1386 8.45972 13.1341C8.45972 15.0863 9.92639 16.6484 12.1959 16.6484H12.2406Z" fill="#26261F"/>
<path d="M19.361 39.7666H26.1225V28.4075C26.1225 27.7992 26.1666 27.1916 26.3454 26.7573C26.833 25.542 27.9463 24.2844 29.8135 24.2844C32.2603 24.2844 33.2383 26.1502 33.2383 28.8843V39.7666H39.9985V28.1031C39.9985 21.8551 36.6638 18.9481 32.215 18.9481C28.5682 18.9481 26.9663 20.986 26.0769 22.3746H26.1225V19.4257H19.361C19.4507 21.3341 19.361 39.7666 19.361 39.7666Z" fill="#26261F"/>
<defs>
<linearGradient id="paint0_linear_5_60" x1="13.449" y1="-4.60039" x2="19.3019" y2="12.4601" gradientUnits="userSpaceOnUse">
<stop stop-color="white"/>
<stop offset="1" stop-color="white" stop-opacity="0"/>
</linearGradient>
</defs>
</svg>
