<svg width="45" height="34" viewBox="0 0 45 34" fill="none" xmlns="http://www.w3.org/2000/svg">
<path d="M42.8105 0.67749H2.13906C1.09437 0.67749 0.247253 1.50578 0.247253 2.52726V31.4233C0.247253 32.4448 1.09437 33.2731 2.13906 33.2731H42.8105C43.8552 33.2731 44.7023 32.4448 44.7023 31.4233V2.52726C44.7023 1.50578 43.8552 0.67749 42.8105 0.67749ZM42.0103 28.8553C42.0103 29.6952 41.2704 30.3762 40.3576 30.3762H38.4845V8.14515L22.4827 21.6562L6.59099 8.23837V30.3757H4.71795C3.80514 30.3757 3.06521 29.6947 3.06521 28.8549V5.09569C3.06521 4.25581 3.80514 3.57482 4.71795 3.57482H5.47616H6.56728H6.59099V3.59462L22.4827 17.0125L38.3981 3.57482H39.4892H40.3571C41.2699 3.57482 42.0098 4.25581 42.0098 5.09569V28.8553H42.0103Z" fill="#ADAD93"/>
</svg>
